<svg width="15" height="15" viewBox="0 0 15 15" fill="none" xmlns="http://www.w3.org/2000/svg">
<path fill-rule="evenodd" clip-rule="evenodd" d="M6.06687 1.50559C5.625 1.89746 5.625 2.61434 5.625 4.04746V10.9525C5.625 12.3856 5.625 13.1025 6.06687 13.4943C6.50875 13.8862 7.18437 13.7687 8.53562 13.5331L9.99188 13.2793C11.4881 13.0181 12.2362 12.8875 12.6806 12.3387C13.125 11.7893 13.125 10.9956 13.125 9.40746V5.59246C13.125 4.00496 13.125 3.21121 12.6813 2.66184C12.2363 2.11309 11.4875 1.98246 9.99125 1.72184L8.53625 1.46746C7.185 1.23184 6.50938 1.11434 6.0675 1.50621M7.5 6.35559C7.75875 6.35559 7.96875 6.57496 7.96875 6.84559V8.15434C7.96875 8.42496 7.75875 8.64434 7.5 8.64434C7.24125 8.64434 7.03125 8.42496 7.03125 8.15434V6.84559C7.03125 6.57496 7.24125 6.35559 7.5 6.35559Z" fill="black"/>
<path d="M4.71688 2.8125C3.43062 2.81438 2.76 2.8425 2.3325 3.27C1.875 3.7275 1.875 4.46375 1.875 5.9375V9.0625C1.875 10.5356 1.875 11.2719 2.3325 11.73C2.76 12.1569 3.43062 12.1856 4.71688 12.1875C4.6875 11.7975 4.6875 11.3475 4.6875 10.8606V4.13938C4.6875 3.65188 4.6875 3.20188 4.71688 2.8125Z" fill="black"/>
</svg>
