<svg width="50" height="50" viewBox="0 0 50 50" fill="none" xmlns="http://www.w3.org/2000/svg">
<circle cx="25" cy="25" r="25" fill="#2196F3"/>
<path d="M28.8335 14.1101H21.1665C20.2397 14.1097 19.3219 14.2919 18.4655 14.6464C17.6091 15.0009 16.831 15.5206 16.1756 16.1759C15.5201 16.8312 15.0002 17.6093 14.6456 18.4656C14.291 19.3219 14.1085 20.2396 14.1087 21.1665V28.8335C14.1083 29.7604 14.2906 30.6784 14.6452 31.5348C14.9997 32.3913 15.5196 33.1695 16.1751 33.8249C16.8305 34.4804 17.6087 35.0003 18.4652 35.3548C19.3216 35.7094 20.2396 35.8917 21.1665 35.8913H28.8335C29.7605 35.8917 30.6784 35.7094 31.5349 35.3548C32.3914 35.0003 33.1696 34.4804 33.825 33.8249C34.4805 33.1695 35.0003 32.3913 35.3549 31.5348C35.7094 30.6784 35.8917 29.7604 35.8914 28.8335V21.1665C35.8917 20.2395 35.7094 19.3216 35.3549 18.4651C35.0003 17.6087 34.4805 16.8305 33.825 16.175C33.1696 15.5196 32.3914 14.9997 31.5349 14.6451C30.6784 14.2906 29.7605 14.1083 28.8335 14.1086V14.1101Z" stroke="white" stroke-width="1.5"/>
<path d="M35.7752 30.0829H38.0688C38.4539 30.0829 38.8232 29.9299 39.0956 29.6576C39.3679 29.3853 39.5209 29.016 39.5209 28.6308V21.3704C39.5209 20.9853 39.3679 20.616 39.0956 20.3436C38.8232 20.0713 38.4539 19.9183 38.0688 19.9183H35.7738M14.2263 30.0829H11.9313C11.7406 30.0829 11.5518 30.0454 11.3756 29.9724C11.1994 29.8994 11.0393 29.7925 10.9045 29.6576C10.7697 29.5228 10.6627 29.3627 10.5897 29.1865C10.5167 29.0103 10.4792 28.8215 10.4792 28.6308V21.3704C10.4792 20.9853 10.6322 20.616 10.9045 20.3436C11.1768 20.0713 11.5462 19.9183 11.9313 19.9183H14.2263" stroke="white" stroke-width="1.5"/>
<path d="M11.9171 19.9184V14.1101M38.0688 19.9184L38.0546 14.1101M20.6296 20.4143V24.2364M29.3421 20.4143V24.2364M22.0817 30.083H27.89" stroke="white" stroke-width="1.5" stroke-linecap="round" stroke-linejoin="round"/>
</svg>
