<svg width="50" height="50" viewBox="0 0 50 50" fill="none" xmlns="http://www.w3.org/2000/svg">
<circle cx="25" cy="25" r="25" fill="#2196F3"/>
<path d="M28.8335 14.1101H21.1665C20.2396 14.1097 19.3218 14.2919 18.4654 14.6464C17.6091 15.0009 16.8309 15.5206 16.1755 16.1759C15.5201 16.8312 15.0002 17.6093 14.6455 18.4656C14.2909 19.3219 14.1085 20.2396 14.1086 21.1665V28.8335C14.1083 29.7604 14.2906 30.6784 14.6451 31.5348C14.9997 32.3913 15.5196 33.1695 16.175 33.8249C16.8305 34.4804 17.6087 35.0003 18.4651 35.3548C19.3216 35.7094 20.2395 35.8917 21.1665 35.8913H28.8335C29.7604 35.8917 30.6784 35.7094 31.5348 35.3548C32.3913 35.0003 33.1695 34.4804 33.8249 33.8249C34.4804 33.1695 35.0003 32.3913 35.3548 31.5348C35.7094 30.6784 35.8917 29.7604 35.8913 28.8335V21.1665C35.8917 20.2395 35.7094 19.3216 35.3548 18.4651C35.0003 17.6087 34.4804 16.8305 33.8249 16.175C33.1695 15.5196 32.3913 14.9997 31.5348 14.6451C30.6784 14.2906 29.7604 14.1083 28.8335 14.1086V14.1101Z" stroke="white" stroke-width="1.5"/>
<path d="M35.7751 30.0829H38.0687C38.4538 30.0829 38.8232 29.9299 39.0955 29.6576C39.3678 29.3853 39.5208 29.016 39.5208 28.6308V21.3704C39.5208 20.9853 39.3678 20.616 39.0955 20.3436C38.8232 20.0713 38.4538 19.9183 38.0687 19.9183H35.7737M14.2262 30.0829H11.9312C11.7405 30.0829 11.5517 30.0454 11.3755 29.9724C11.1993 29.8994 11.0393 29.7925 10.9044 29.6576C10.7696 29.5228 10.6626 29.3627 10.5897 29.1865C10.5167 29.0103 10.4791 28.8215 10.4791 28.6308V21.3704C10.4791 20.9853 10.6321 20.616 10.9044 20.3436C11.1767 20.0713 11.5461 19.9183 11.9312 19.9183H14.2262" stroke="white" stroke-width="1.5"/>
<path d="M11.917 19.9184V14.1101M38.0687 19.9184L38.0545 14.1101M20.6295 20.4143V24.2364M29.342 20.4143V24.2364M22.0816 30.083H27.8899" stroke="white" stroke-width="1.5" stroke-linecap="round" stroke-linejoin="round"/>
</svg>
