<svg width="35" height="35" viewBox="0 0 35 35" fill="none" xmlns="http://www.w3.org/2000/svg">
<path fill-rule="evenodd" clip-rule="evenodd" d="M9.14083 4.37496C9.39682 3.93158 9.765 3.56339 10.2084 3.3074C10.6518 3.05141 11.1547 2.91664 11.6667 2.91663H18.9583C19.4703 2.91664 19.9733 3.05141 20.4166 3.3074C20.86 3.56339 21.2282 3.93158 21.4842 4.37496H23.3333C24.1069 4.37496 24.8487 4.68225 25.3957 5.22923C25.9427 5.77621 26.25 6.51808 26.25 7.29163V13.125H27.7083C28.4819 13.125 29.2237 13.4323 29.7707 13.9792C30.3177 14.5262 30.625 15.2681 30.625 16.0416V29.1666C30.625 29.9402 30.3177 30.682 29.7707 31.229C29.2237 31.776 28.4819 32.0833 27.7083 32.0833H16.0417C15.2681 32.0833 14.5263 31.776 13.9793 31.229C13.4323 30.682 13.125 29.9402 13.125 29.1666V27.7083H7.29167C6.51812 27.7083 5.77625 27.401 5.22927 26.854C4.68229 26.307 4.375 25.5652 4.375 24.7916V7.29163C4.375 6.51808 4.68229 5.77621 5.22927 5.22923C5.77625 4.68225 6.51812 4.37496 7.29167 4.37496H9.14083ZM8.75 7.29163H7.29167V24.7916H13.125V16.0416C13.125 15.2681 13.4323 14.5262 13.9793 13.9792C14.5263 13.4323 15.2681 13.125 16.0417 13.125H23.3333V7.29163H21.875C21.875 8.06517 21.5677 8.80704 21.0207 9.35402C20.4737 9.901 19.7319 10.2083 18.9583 10.2083H11.6667C10.8931 10.2083 10.1513 9.901 9.60427 9.35402C9.05729 8.80704 8.75 8.06517 8.75 7.29163ZM16.0417 16.0416V29.1666H27.7083V16.0416H16.0417ZM18.9583 5.83329H11.6667V7.29163H18.9583V5.83329Z" fill="black"/>
</svg>
