<svg width="30" height="30" viewBox="0 0 30 30" fill="none" xmlns="http://www.w3.org/2000/svg">
<path d="M15 26.25C11.875 26.25 9.21875 25.1562 7.03125 22.9688C4.84375 20.7812 3.75 18.125 3.75 15C3.75 11.875 4.84375 9.21875 7.03125 7.03125C9.21875 4.84375 11.875 3.75 15 3.75C15.2917 3.75 15.5783 3.76042 15.86 3.78125C16.1417 3.80208 16.4175 3.83333 16.6875 3.875C15.8333 4.47917 15.1508 5.26583 14.64 6.235C14.1292 7.20417 13.8742 8.25083 13.875 9.375C13.875 11.25 14.5312 12.8438 15.8438 14.1562C17.1562 15.4688 18.75 16.125 20.625 16.125C21.7708 16.125 22.8229 15.8696 23.7812 15.3587C24.7396 14.8479 25.5208 14.1658 26.125 13.3125C26.1667 13.5833 26.1979 13.8592 26.2188 14.14C26.2396 14.4208 26.25 14.7075 26.25 15C26.25 18.125 25.1562 20.7812 22.9688 22.9688C20.7812 25.1562 18.125 26.25 15 26.25Z" fill="black"/>
</svg>

