<svg width="30" height="30" viewBox="0 0 30 30" fill="none" xmlns="http://www.w3.org/2000/svg">
<g clip-path="url(#clip0_17_166)">
<path d="M9.375 15C9.375 16.4918 9.96763 17.9226 11.0225 18.9775C12.0774 20.0324 13.5082 20.625 15 20.625C16.4918 20.625 17.9226 20.0324 18.9775 18.9775C20.0324 17.9226 20.625 16.4918 20.625 15C20.625 13.5082 20.0324 12.0774 18.9775 11.0225C17.9226 9.96763 16.4918 9.375 15 9.375C13.5082 9.375 12.0774 9.96763 11.0225 11.0225C9.96763 12.0774 9.375 13.5082 9.375 15ZM15 7.2875C15.3315 7.2875 15.6495 7.1558 15.8839 6.92138C16.1183 6.68696 16.25 6.36902 16.25 6.0375V1.25C16.25 0.918479 16.1183 0.600537 15.8839 0.366117C15.6495 0.131696 15.3315 0 15 0C14.6685 0 14.3505 0.131696 14.1161 0.366117C13.8817 0.600537 13.75 0.918479 13.75 1.25V6.0375C13.75 6.36902 13.8817 6.68696 14.1161 6.92138C14.3505 7.1558 14.6685 7.2875 15 7.2875ZM15 22.7125C14.6685 22.7125 14.3505 22.8442 14.1161 23.0786C13.8817 23.313 13.75 23.631 13.75 23.9625V28.75C13.75 29.0815 13.8817 29.3995 14.1161 29.6339C14.3505 29.8683 14.6685 30 15 30C15.3315 30 15.6495 29.8683 15.8839 29.6339C16.1183 29.3995 16.25 29.0815 16.25 28.75V23.9625C16.25 23.631 16.1183 23.313 15.8839 23.0786C15.6495 22.8442 15.3315 22.7125 15 22.7125ZM7.775 9.55C8.0092 9.78281 8.32602 9.91349 8.65625 9.91349C8.98648 9.91349 9.3033 9.78281 9.5375 9.55C9.65466 9.4338 9.74765 9.29554 9.81111 9.14322C9.87457 8.9909 9.90725 8.82751 9.90725 8.6625C9.90725 8.49749 9.87457 8.3341 9.81111 8.18178C9.74765 8.02946 9.65466 7.8912 9.5375 7.775L6.1625 4.4C6.04677 4.28345 5.90922 4.19084 5.7577 4.12745C5.60618 4.06406 5.44366 4.03114 5.27942 4.03055C4.94771 4.02938 4.62913 4.16003 4.39375 4.39375C4.2772 4.50948 4.18459 4.64703 4.1212 4.79855C4.05781 4.95007 4.02489 5.11259 4.0243 5.27683C4.02313 5.60854 4.15378 5.92712 4.3875 6.1625L7.775 9.55ZM22.225 20.4625C21.9908 20.2297 21.674 20.099 21.3438 20.099C21.0135 20.099 20.6967 20.2297 20.4625 20.4625C20.2297 20.6967 20.099 21.0135 20.099 21.3438C20.099 21.674 20.2297 21.9908 20.4625 22.225L23.8375 25.6125C23.9537 25.7297 24.092 25.8227 24.2443 25.8861C24.3966 25.9496 24.56 25.9822 24.725 25.9822C24.89 25.9822 25.0534 25.9496 25.2057 25.8861C25.358 25.8227 25.4963 25.7297 25.6125 25.6125C25.7297 25.4963 25.8227 25.358 25.8861 25.2057C25.9496 25.0534 25.9822 24.89 25.9822 24.725C25.9822 24.56 25.9496 24.3966 25.8861 24.2443C25.8227 24.092 25.7297 23.9537 25.6125 23.8375L22.225 20.4625ZM7.2875 15.625C7.2875 15.2935 7.1558 14.9755 6.92138 14.7411C6.68696 14.5067 6.36902 14.375 6.0375 14.375H1.25C0.918479 14.375 0.600537 14.5067 0.366117 14.7411C0.131696 14.9755 0 15.2935 0 15.625C0 15.9565 0.131696 16.2745 0.366117 16.5089C0.600537 16.7433 0.918479 16.875 1.25 16.875H6.0375C6.36902 16.875 6.68696 16.7433 6.92138 16.5089C7.1558 16.2745 7.2875 15.9565 7.2875 15.625ZM28.75 14.375H23.9625C23.631 14.375 23.313 14.5067 23.0786 14.7411C22.8442 14.9755 22.7125 15.2935 22.7125 15.625C22.7125 15.9565 22.8442 16.2745 23.0786 16.5089C23.313 16.7433 23.631 16.875 23.9625 16.875H28.75C29.0815 16.875 29.3995 16.7433 29.6339 16.5089C29.8683 16.2745 30 15.9565 30 15.625C30 15.2935 29.8683 14.9755 29.6339 14.7411C29.3995 14.5067 29.0815 14.375 28.75 14.375ZM7.775 20.4625L4.3875 23.8375C4.27034 23.9537 4.17735 24.092 4.11389 24.2443C4.05043 24.3966 4.01775 24.56 4.01775 24.725C4.01775 24.89 4.05043 25.0534 4.11389 25.2057C4.17735 25.358 4.27034 25.4963 4.3875 25.6125C4.5037 25.7297 4.64196 25.8227 4.79428 25.8861C4.9466 25.9496 5.10998 25.9822 5.275 25.9822C5.44001 25.9822 5.6034 25.9496 5.75572 25.8861C5.90804 25.8227 6.0463 25.7297 6.1625 25.6125L9.5375 22.225C9.74228 21.9859 9.84929 21.6783 9.83714 21.3637C9.82499 21.0491 9.69457 20.7507 9.47195 20.528C9.24934 20.3054 8.95091 20.175 8.63632 20.1629C8.32172 20.1507 8.01413 20.2577 7.775 20.4625ZM21.3375 9.9C21.668 9.90525 21.9871 9.77941 22.225 9.55L25.6125 6.1625C25.7282 6.04595 25.8199 5.90775 25.8822 5.75579C25.9445 5.60382 25.9763 5.44107 25.9757 5.27683C25.9751 5.11259 25.9422 4.95007 25.8788 4.79855C25.8154 4.64703 25.7228 4.50948 25.6063 4.39375C25.4897 4.27802 25.3515 4.18638 25.1995 4.12407C25.0476 4.06175 24.8848 4.02997 24.7206 4.03055C24.5563 4.03114 24.3938 4.06406 24.2423 4.12745C24.0908 4.19084 23.9532 4.28345 23.8375 4.4L20.4625 7.775C20.3453 7.8912 20.2523 8.02946 20.1889 8.18178C20.1254 8.3341 20.0928 8.49749 20.0928 8.6625C20.0928 8.82751 20.1254 8.9909 20.1889 9.14322C20.2523 9.29554 20.3453 9.4338 20.4625 9.55C20.6973 9.77636 21.0113 9.90196 21.3375 9.9Z" fill="black"/>
</g>
<defs>
<clipPath id="clip0_17_166">
<rect width="30" height="30" fill="white"/>
</clipPath>
</defs>
</svg>

