<svg width="55" height="55" viewBox="0 0 55 55" fill="none" xmlns="http://www.w3.org/2000/svg">
<path d="M25.2084 38.9583H16.0417C12.8716 38.9583 10.1697 37.8407 7.93608 35.6056C5.70247 33.3704 4.5849 30.6686 4.58338 27.5C4.58185 24.3313 5.69942 21.6295 7.93608 19.3943C10.1728 17.1592 12.8746 16.0416 16.0417 16.0416H25.2084V20.625H16.0417C14.132 20.625 12.5087 21.2934 11.1719 22.6302C9.83511 23.967 9.16671 25.5902 9.16671 27.5C9.16671 29.4097 9.83511 31.0329 11.1719 32.3698C12.5087 33.7066 14.132 34.375 16.0417 34.375H25.2084V38.9583ZM18.3334 29.7916V25.2083H36.6667V29.7916H18.3334ZM29.7917 38.9583V34.375H38.9584C40.8681 34.375 42.4914 33.7066 43.8282 32.3698C45.165 31.0329 45.8334 29.4097 45.8334 27.5C45.8334 25.5902 45.165 23.967 43.8282 22.6302C42.4914 21.2934 40.8681 20.625 38.9584 20.625H29.7917V16.0416H38.9584C42.1285 16.0416 44.8312 17.1592 47.0663 19.3943C49.3014 21.6295 50.4182 24.3313 50.4167 27.5C50.4152 30.6686 49.2976 33.3712 47.064 35.6079C44.8304 37.8445 42.1285 38.9613 38.9584 38.9583H29.7917Z" fill="black"/>
</svg>
