<svg width="35" height="35" viewBox="0 0 35 35" fill="none" xmlns="http://www.w3.org/2000/svg">
<path d="M10.2083 5.83329V16.0416L13.8542 13.8541L17.5 16.0416V5.83329H10.2083ZM26.25 33.5416C24.2326 33.5416 22.5133 32.8304 21.0919 31.4081C19.6705 29.9857 18.9593 28.2663 18.9583 26.25C18.9574 24.2336 19.6685 22.5142 21.0919 21.0918C22.5152 19.6695 24.2346 18.9583 26.25 18.9583C28.2654 18.9583 29.9853 19.6695 31.4096 21.0918C32.8339 22.5142 33.5446 24.2336 33.5417 26.25C33.5388 28.2663 32.8276 29.9862 31.4081 31.4095C29.9887 32.8329 28.2693 33.5436 26.25 33.5416ZM24.4271 29.8958L30.2604 26.25L24.4271 22.6041V29.8958ZM16.0417 26.2397C16.0417 27.2917 16.206 28.3101 16.5346 29.295C16.8632 30.2798 17.3065 31.2093 17.8646 32.0833H7.29167C6.48958 32.0833 5.80319 31.7979 5.2325 31.2272C4.66181 30.6566 4.37597 29.9697 4.375 29.1666V5.83329C4.375 5.03121 4.66083 4.34482 5.2325 3.77413C5.80417 3.20343 6.49056 2.9176 7.29167 2.91663H24.7917C25.5938 2.91663 26.2806 3.20246 26.8523 3.77413C27.424 4.34579 27.7093 5.03218 27.7083 5.83329V16.1145C27.4643 16.0902 27.2198 16.0718 26.9748 16.0591C26.7298 16.0465 26.4848 16.0407 26.2398 16.0416C23.4028 16.0416 20.9942 17.0323 19.0138 19.0137C17.0333 20.9951 16.0426 23.4038 16.0417 26.2397Z" fill="white"/>
</svg>
