<svg width="50" height="50" viewBox="0 0 50 50" fill="none" xmlns="http://www.w3.org/2000/svg">
<circle cx="25" cy="25" r="25" fill="#2196F3"/>
<path d="M17.2083 12.8333V23.0416L20.8542 20.8541L24.5 23.0416V12.8333H17.2083ZM33.25 40.5416C31.2326 40.5416 29.5133 39.8304 28.0919 38.4081C26.6705 36.9857 25.9593 35.2663 25.9583 33.25C25.9574 31.2336 26.6685 29.5142 28.0919 28.0918C29.5152 26.6695 31.2346 25.9583 33.25 25.9583C35.2654 25.9583 36.9853 26.6695 38.4096 28.0918C39.8339 29.5142 40.5446 31.2336 40.5417 33.25C40.5388 35.2663 39.8276 36.9862 38.4081 38.4095C36.9887 39.8329 35.2693 40.5436 33.25 40.5416ZM31.4271 36.8958L37.2604 33.25L31.4271 29.6041V36.8958ZM23.0417 33.2397C23.0417 34.2917 23.206 35.3101 23.5346 36.295C23.8632 37.2798 24.3065 38.2093 24.8646 39.0833H14.2917C13.4896 39.0833 12.8032 38.7979 12.2325 38.2272C11.6618 37.6566 11.376 36.9697 11.375 36.1666V12.8333C11.375 12.0312 11.6608 11.3448 12.2325 10.7741C12.8042 10.2034 13.4906 9.9176 14.2917 9.91663H31.7917C32.5938 9.91663 33.2806 10.2025 33.8523 10.7741C34.424 11.3458 34.7093 12.0322 34.7083 12.8333V23.1145C34.4643 23.0902 34.2198 23.0718 33.9748 23.0591C33.7298 23.0465 33.4848 23.0407 33.2398 23.0416C30.4028 23.0416 27.9942 24.0323 26.0138 26.0137C24.0333 27.9951 23.0426 30.4038 23.0417 33.2397Z" fill="white"/>
</svg>

