<svg width="55" height="55" viewBox="0 0 55 55" fill="none" xmlns="http://www.w3.org/2000/svg">
<path d="M9.16663 23.8333V22H7.33329V23.8333H9.16663ZM23.8333 23.8333V22H22V23.8333H23.8333ZM23.8333 38.5H22V40.3333H23.8333V38.5ZM49.5 12.8333H51.3333V12.0743L50.798 11.5353L49.5 12.8333ZM38.5 1.83333L39.798 0.535333L39.259 0H38.5V1.83333ZM9.16663 25.6667H12.8333V22H9.16663V25.6667ZM11 40.3333V31.1667H7.33329V40.3333H11ZM11 31.1667V23.8333H7.33329V31.1667H11ZM12.8333 29.3333H9.16663V33H12.8333V29.3333ZM14.6666 27.5C14.6666 27.9862 14.4735 28.4525 14.1297 28.7964C13.7858 29.1402 13.3195 29.3333 12.8333 29.3333V33C14.292 33 15.6909 32.4205 16.7224 31.3891C17.7538 30.3576 18.3333 28.9587 18.3333 27.5H14.6666ZM12.8333 25.6667C13.3195 25.6667 13.7858 25.8598 14.1297 26.2036C14.4735 26.5475 14.6666 27.0138 14.6666 27.5H18.3333C18.3333 26.0413 17.7538 24.6424 16.7224 23.6109C15.6909 22.5795 14.292 22 12.8333 22V25.6667ZM22 23.8333V38.5H25.6666V23.8333H22ZM23.8333 40.3333H27.5V36.6667H23.8333V40.3333ZM33 34.8333V27.5H29.3333V34.8333H33ZM27.5 22H23.8333V25.6667H27.5V22ZM33 27.5C33 26.0413 32.4205 24.6424 31.389 23.6109C30.3576 22.5795 28.9587 22 27.5 22V25.6667C27.9862 25.6667 28.4525 25.8598 28.7963 26.2036C29.1401 26.5475 29.3333 27.0138 29.3333 27.5H33ZM27.5 40.3333C28.9587 40.3333 30.3576 39.7539 31.389 38.7224C32.4205 37.691 33 36.292 33 34.8333H29.3333C29.3333 35.3196 29.1401 35.7859 28.7963 36.1297C28.4525 36.4735 27.9862 36.6667 27.5 36.6667V40.3333ZM36.6666 22V40.3333H40.3333V22H36.6666ZM38.5 25.6667H47.6666V22H38.5V25.6667ZM38.5 33H44V29.3333H38.5V33ZM7.33329 18.3333V5.5H3.66663V18.3333H7.33329ZM47.6666 12.8333V18.3333H51.3333V12.8333H47.6666ZM9.16663 3.66667H38.5V0H9.16663V3.66667ZM37.202 3.13133L48.202 14.1313L50.798 11.5353L39.798 0.535333L37.202 3.13133ZM7.33329 5.5C7.33329 5.01377 7.52645 4.54745 7.87026 4.20364C8.21408 3.85982 8.6804 3.66667 9.16663 3.66667V0C7.70794 0 6.30899 0.579463 5.27754 1.61091C4.24609 2.64236 3.66663 4.04131 3.66663 5.5H7.33329ZM3.66663 44V49.5H7.33329V44H3.66663ZM9.16663 55H45.8333V51.3333H9.16663V55ZM51.3333 49.5V44H47.6666V49.5H51.3333ZM45.8333 55C47.292 55 48.6909 54.4205 49.7224 53.3891C50.7538 52.3576 51.3333 50.9587 51.3333 49.5H47.6666C47.6666 49.9862 47.4735 50.4525 47.1297 50.7964C46.7858 51.1402 46.3195 51.3333 45.8333 51.3333V55ZM3.66663 49.5C3.66663 50.9587 4.24609 52.3576 5.27754 53.3891C6.30899 54.4205 7.70794 55 9.16663 55V51.3333C8.6804 51.3333 8.21408 51.1402 7.87026 50.7964C7.52645 50.4525 7.33329 49.9862 7.33329 49.5H3.66663Z" fill="#E53935"/>
</svg>
