<svg width="35" height="35" viewBox="0 0 35 35" fill="none" xmlns="http://www.w3.org/2000/svg">
<path d="M5.36666 18.9583L4.59666 19.7342C4.80149 19.9372 5.07824 20.0511 5.36666 20.0511C5.65508 20.0511 5.93182 19.9372 6.13666 19.7342L5.36666 18.9583ZM8.58666 17.3046C8.79281 17.1 8.90924 16.8219 8.91033 16.5314C8.91143 16.241 8.7971 15.962 8.59249 15.7558C8.49118 15.6538 8.37076 15.5726 8.2381 15.5171C8.10544 15.4616 7.96314 15.4327 7.81933 15.4322C7.52888 15.4311 7.24989 15.5454 7.04374 15.75L8.58666 17.3046ZM3.68666 15.75C3.47957 15.5515 3.20276 15.4423 2.91589 15.4459C2.62903 15.4495 2.35507 15.5657 2.15308 15.7694C1.95108 15.9732 1.83721 16.2481 1.83601 16.535C1.83481 16.8219 1.94637 17.0977 2.14666 17.3031L3.68666 15.75ZM27.1483 10.78C27.2216 10.9063 27.3195 11.0165 27.4361 11.1044C27.5527 11.1922 27.6857 11.2558 27.8273 11.2914C27.9689 11.3271 28.1162 11.334 28.2605 11.3118C28.4047 11.2896 28.5431 11.2387 28.6675 11.1622C28.7918 11.0857 28.8995 10.985 28.9844 10.8662C29.0692 10.7474 29.1294 10.6128 29.1613 10.4703C29.1933 10.3279 29.1965 10.1805 29.1706 10.0368C29.1447 9.89313 29.0903 9.75609 29.0106 9.63376L27.1483 10.78ZM17.6152 3.28126C10.255 3.28126 4.27145 9.20355 4.27145 16.5273H6.45895C6.45895 10.4286 11.4465 5.46876 17.6152 5.46876V3.28126ZM4.27145 16.5273V18.9583H6.45895V16.5273H4.27145ZM6.13812 19.7356L8.58666 17.3046L7.04374 15.75L4.59374 18.1811L6.13812 19.7356ZM6.13812 18.1825L3.68666 15.75L2.1452 17.3031L4.5952 19.7327L6.13812 18.1825ZM29.0106 9.63668C27.8132 7.6916 26.1371 6.08603 24.1423 4.97337C22.1475 3.86071 19.8993 3.27812 17.6152 3.28126V5.46876C19.5259 5.46508 21.4071 5.95156 23.0762 6.8817C24.7452 7.81184 26.1478 9.15455 27.1498 10.7815L29.0106 9.63668ZM29.6246 16.0417L30.3931 15.2644C30.1884 15.0622 29.9123 14.9489 29.6246 14.9489C29.3369 14.9489 29.0607 15.0622 28.856 15.2644L29.6246 16.0417ZM26.3958 17.694C26.2937 17.795 26.2124 17.9152 26.1566 18.0476C26.1009 18.18 26.0718 18.3221 26.071 18.4658C26.0694 18.756 26.1831 19.0349 26.3871 19.2413C26.5911 19.4476 26.8687 19.5645 27.1589 19.5661C27.4491 19.5677 27.728 19.454 27.9344 19.25L26.3958 17.694ZM31.3148 19.25C31.4164 19.3537 31.5375 19.4361 31.6713 19.4924C31.805 19.5488 31.9487 19.5779 32.0938 19.5782C32.2389 19.5785 32.3827 19.5499 32.5166 19.4941C32.6506 19.4383 32.7721 19.3564 32.8741 19.2531C32.9761 19.1499 33.0565 19.0274 33.1107 18.8927C33.1649 18.7581 33.1917 18.614 33.1896 18.4689C33.1875 18.3238 33.1566 18.1805 33.0986 18.0475C33.0406 17.9144 32.9568 17.7943 32.8519 17.694L31.3148 19.25ZM7.75541 24.2171C7.60302 23.9701 7.35877 23.7938 7.07639 23.727C6.79401 23.6601 6.49664 23.7081 6.24968 23.8605C6.00273 24.0129 5.82642 24.2572 5.75955 24.5396C5.69268 24.8219 5.74073 25.1193 5.89312 25.3663L7.75541 24.2171ZM17.3294 31.7188C24.7115 31.7188 30.7169 25.8008 30.7169 18.4727H28.5294C28.5294 24.5686 23.5273 29.5313 17.3294 29.5313V31.7188ZM30.7169 18.4727V16.0417H28.5294V18.4727H30.7169ZM28.856 15.2644L26.3958 17.694L27.9344 19.25L30.3931 16.819L28.856 15.2644ZM28.856 16.819L31.3148 19.25L32.8519 17.694L30.3931 15.2644L28.856 16.819ZM5.89166 25.3648C7.09717 27.3119 8.781 28.918 10.7828 30.0302C12.7847 31.1424 15.0379 31.7237 17.3279 31.7188V29.5313C15.4112 29.5362 13.5251 29.0504 11.8493 28.1202C10.1734 27.19 8.76504 25.8463 7.75541 24.2171L5.89166 25.3648Z" fill="#BDBDBD"/>
</svg>
