<svg width="35" height="35" viewBox="0 0 35 35" fill="none" xmlns="http://www.w3.org/2000/svg">
<path d="M5.3666 18.9583L4.5966 19.7342C4.80143 19.9372 5.07818 20.0511 5.3666 20.0511C5.65502 20.0511 5.93176 19.9372 6.1366 19.7342L5.3666 18.9583ZM8.5866 17.3046C8.79275 17.1 8.90918 16.8219 8.91027 16.5314C8.91137 16.241 8.79704 15.962 8.59243 15.7558C8.49112 15.6538 8.3707 15.5726 8.23804 15.5171C8.10538 15.4616 7.96308 15.4327 7.81926 15.4322C7.52882 15.4311 7.24983 15.5454 7.04368 15.75L8.5866 17.3046ZM3.6866 15.75C3.4795 15.5515 3.2027 15.4423 2.91583 15.4459C2.62897 15.4495 2.35501 15.5657 2.15301 15.7694C1.95102 15.9732 1.83715 16.2481 1.83595 16.535C1.83475 16.8219 1.94631 17.0977 2.1466 17.3031L3.6866 15.75ZM27.1483 10.78C27.2216 10.9063 27.3194 11.0165 27.436 11.1044C27.5527 11.1922 27.6857 11.2558 27.8272 11.2914C27.9688 11.3271 28.1161 11.334 28.2604 11.3118C28.4047 11.2896 28.5431 11.2387 28.6674 11.1622C28.7917 11.0857 28.8995 10.985 28.9843 10.8662C29.0691 10.7474 29.1293 10.6128 29.1613 10.4703C29.1933 10.3279 29.1964 10.1805 29.1705 10.0368C29.1446 9.89313 29.0902 9.75609 29.0106 9.63376L27.1483 10.78ZM17.6151 3.28126C10.2549 3.28126 4.27139 9.20355 4.27139 16.5273H6.45889C6.45889 10.4286 11.4464 5.46876 17.6151 5.46876V3.28126ZM4.27139 16.5273V18.9583H6.45889V16.5273H4.27139ZM6.13806 19.7356L8.5866 17.3046L7.04368 15.75L4.59368 18.1811L6.13806 19.7356ZM6.13806 18.1825L3.6866 15.75L2.14514 17.3031L4.59514 19.7327L6.13806 18.1825ZM29.0106 9.63668C27.8131 7.6916 26.137 6.08603 24.1422 4.97337C22.1475 3.86071 19.8992 3.27812 17.6151 3.28126V5.46876C19.5259 5.46508 21.4071 5.95156 23.0761 6.8817C24.7451 7.81184 26.1477 9.15455 27.1497 10.7815L29.0106 9.63668ZM29.6245 16.0417L30.3931 15.2644C30.1883 15.0622 29.9122 14.9489 29.6245 14.9489C29.3368 14.9489 29.0607 15.0622 28.856 15.2644L29.6245 16.0417ZM26.3958 17.694C26.2936 17.795 26.2123 17.9152 26.1566 18.0476C26.1008 18.18 26.0717 18.3221 26.0709 18.4658C26.0693 18.756 26.183 19.0349 26.387 19.2413C26.591 19.4476 26.8687 19.5645 27.1588 19.5661C27.449 19.5677 27.728 19.454 27.9343 19.25L26.3958 17.694ZM31.3147 19.25C31.4163 19.3537 31.5375 19.4361 31.6712 19.4924C31.805 19.5488 31.9486 19.5779 32.0937 19.5782C32.2389 19.5785 32.3826 19.5499 32.5166 19.4941C32.6505 19.4383 32.772 19.3564 32.874 19.2531C32.976 19.1499 33.0565 19.0274 33.1106 18.8927C33.1648 18.7581 33.1916 18.614 33.1896 18.4689C33.1875 18.3238 33.1566 18.1805 33.0986 18.0475C33.0406 17.9144 32.9567 17.7943 32.8518 17.694L31.3147 19.25ZM7.75535 24.2171C7.60296 23.9701 7.35871 23.7938 7.07633 23.727C6.79395 23.6601 6.49657 23.7081 6.24962 23.8605C6.00266 24.0129 5.82636 24.2572 5.75949 24.5396C5.69262 24.8219 5.74067 25.1193 5.89306 25.3663L7.75535 24.2171ZM17.3293 31.7188C24.7114 31.7188 30.7168 25.8008 30.7168 18.4727H28.5293C28.5293 24.5686 23.5272 29.5313 17.3293 29.5313V31.7188ZM30.7168 18.4727V16.0417H28.5293V18.4727H30.7168ZM28.856 15.2644L26.3958 17.694L27.9343 19.25L30.3931 16.819L28.856 15.2644ZM28.856 16.819L31.3147 19.25L32.8518 17.694L30.3931 15.2644L28.856 16.819ZM5.8916 25.3648C7.09711 27.3119 8.78093 28.918 10.7828 30.0302C12.7846 31.1424 15.0378 31.7237 17.3278 31.7188V29.5313C15.4111 29.5362 13.5251 29.0504 11.8492 28.1202C10.1734 27.19 8.76497 25.8463 7.75535 24.2171L5.8916 25.3648Z" fill="#BDBDBD"/>
</svg>
