<svg width="50" height="50" viewBox="0 0 38 38" fill="none" xmlns="http://www.w3.org/2000/svg">
<rect width="50" height="50" rx="10" fill="#90CAF9"/>
<g clip-path="url(#clip0_8_121)">
<path d="M30.625 6.14732C30.9197 6.36161 31.0402 6.64732 30.9866 7.00446L27.5581 27.5759C27.5134 27.8348 27.3706 28.0357 27.1295 28.1786C27.0045 28.25 26.8661 28.2857 26.7143 28.2857C26.6161 28.2857 26.509 28.2634 26.3929 28.2188L20.3259 25.7411L17.0848 29.692C16.9241 29.8973 16.7054 30 16.4286 30C16.3125 30 16.2143 29.9821 16.134 29.9464C15.9643 29.8839 15.8281 29.779 15.7255 29.6317C15.6228 29.4844 15.5715 29.3214 15.5715 29.1429V24.4688L27.1429 10.2857L12.8259 22.6741L7.53574 20.5045C7.20538 20.3795 7.02681 20.1339 7.00002 19.7679C6.98217 19.4107 7.12502 19.1473 7.42859 18.9777L29.7143 6.12054C29.8482 6.04018 29.9911 6 30.1429 6C30.3215 6 30.4822 6.04911 30.625 6.14732Z" fill="white"/>
</g>
<defs>
<clipPath id="clip0_8_121">
<rect width="50" height="50" fill="white" transform="translate(7 6)"/>
</clipPath>
</defs>
</svg>
