<svg width="55" height="55" viewBox="0 0 55 55" fill="none" xmlns="http://www.w3.org/2000/svg">
<path d="M22.9167 34.375L34.8105 27.5L22.9167 20.625V34.375ZM49.4084 16.4313C49.7063 17.5084 49.9125 18.9521 50.05 20.7855C50.2105 22.6188 50.2792 24.2 50.2792 25.575L50.4167 27.5C50.4167 32.5188 50.05 36.2084 49.4084 38.5688C48.8355 40.6313 47.5063 41.9605 45.4438 42.5334C44.3667 42.8313 42.3959 43.0375 39.3709 43.175C36.3917 43.3355 33.6646 43.4042 31.1438 43.4042L27.5 43.5417C17.898 43.5417 11.9167 43.175 9.55629 42.5334C7.49379 41.9605 6.16462 40.6313 5.59171 38.5688C5.29379 37.4917 5.08754 36.048 4.95004 34.2146C4.78962 32.3813 4.72087 30.8 4.72087 29.425L4.58337 27.5C4.58337 22.4813 4.95004 18.7917 5.59171 16.4313C6.16462 14.3688 7.49379 13.0396 9.55629 12.4667C10.6334 12.1688 12.6042 11.9625 15.6292 11.825C18.6084 11.6646 21.3355 11.5959 23.8563 11.5959L27.5 11.4584C37.1021 11.4584 43.0834 11.825 45.4438 12.4667C47.5063 13.0396 48.8355 14.3688 49.4084 16.4313Z" fill="#CD201F"/>
</svg>


